<svg width="32" height="32" viewBox="0 0 32 32" fill="none" xmlns="http://www.w3.org/2000/svg">
<path fill-rule="evenodd" clip-rule="evenodd" d="M16.0265 0C14.0265 0 12.8598 1.33333 12.5265 2C9.85979 8.33333 4.42646 22.2 4.02646 27C3.62646 31.8 7.85979 32 10.0265 31.5L16.0265 28.5L22.0265 31.5C24.1931 32 28.4265 31.8 28.0265 27C27.6265 22.2 22.1931 8.33333 19.5265 2C19.1931 1.33333 18.0265 0 16.0265 0Z" fill="#87027B"/>
<path d="M27.1368 17.4708L24.8906 11.1067C24.6857 10.5262 25.0501 9.90112 25.6649 9.86978C27.6681 9.7677 30.5154 10.2025 31.5 12.5C32.5095 14.8554 30.2873 16.9042 28.4648 17.9915C27.9609 18.2921 27.332 18.024 27.1368 17.4708Z" fill="#87027B"/>
<path d="M4.61579 17.4708L6.86194 11.1067C7.06684 10.5262 6.70244 9.90112 6.08761 9.86978C4.0845 9.7677 1.23718 10.2025 0.252556 12.5C-0.756914 14.8554 1.46526 16.9042 3.28775 17.9915C3.7916 18.2921 4.42052 18.024 4.61579 17.4708Z" fill="#87027B"/>
</svg>
