<svg width="14" height="14" viewBox="0 0 14 14" fill="none" xmlns="http://www.w3.org/2000/svg">
<path fill-rule="evenodd" clip-rule="evenodd" d="M4.66667 11.3333C4 11.3333 2 9.33333 2 8.66667C2 8.44467 2.222 8 2.66667 7.33333L0 6.66667C0 6.66667 1 5.37377 1.66667 5.04044C2.33333 4.70711 4 5.33333 4 5.33333C6.66667 1.33333 10.6667 0 13.3333 0C13.3333 2.66667 12 6.66667 8 9.33333C8 9.33333 8.29289 11.3333 8 12C7.70711 12.6667 6.66667 13.3333 6.66667 13.3333L6 10.6667C5.33333 11.1113 4.88867 11.3333 4.66667 11.3333ZM9 5.33333C9.26522 5.33333 9.51957 5.22798 9.70711 5.04044C9.89464 4.8529 10 4.59855 10 4.33333C10 4.06812 9.89464 3.81376 9.70711 3.62623C9.51957 3.43869 9.26522 3.33333 9 3.33333C8.73478 3.33333 8.48043 3.43869 8.29289 3.62623C8.10536 3.81376 8 4.06812 8 4.33333C8 4.59855 8.10536 4.8529 8.29289 5.04044C8.48043 5.22798 8.73478 5.33333 9 5.33333ZM1.33333 9.33333L2 10.3333C1.55533 10.778 1.33333 11.3333 1.33333 12C2 12 2.55533 11.778 3 11.3333L4 12C3.11133 12.8887 1.778 13.3333 0 13.3333C0 11.5553 0.444667 10.222 1.33333 9.33333Z" fill="#0281A0"/>
</svg>
