<svg width="32" height="19" viewBox="0 0 32 19" fill="none" xmlns="http://www.w3.org/2000/svg">
<circle cx="24.0575" cy="16" r="3" fill="white"/>
<circle cx="8.0575" cy="16" r="3" fill="white"/>
<path fill-rule="evenodd" clip-rule="evenodd" d="M3.55745 15.5C1.55741 16 0.057501 14.5 0.0574975 13.5C0.0574961 13.103 0.0429349 12.6995 0.0284684 12.2986C-0.0235527 10.8571 -0.0743495 9.44945 0.557498 8.5C1.17726 7.56872 3.12321 7.14854 3.55742 7.2209C4.2241 5.05422 6.25745 0.620861 9.05745 0.220861C11.8575 -0.179139 16.5575 0.054194 18.5575 0.220861C19.5575 0.387527 22.1575 2.02087 24.5575 7.2209C27.5575 7.22095 31.0575 7.72095 31.5575 9.72095C31.9575 11.3209 32.0574 12.7209 31.5575 14.2209C31.0575 15.2209 30.1575 15.7209 28.5575 15.7209L28.5345 15.6291C28.0415 13.6536 27.504 11.5 24.0575 11.5C20.4575 11.5 19.5575 14.8333 19.5575 16.5H12.5575C12.7241 14.8333 12.0575 11.5 8.05745 11.5C4.05745 11.5 3.55745 14 3.55745 15.5ZM13 6.50002V2.50002H9.94238C7.99557 2.5 7.36671 5.02675 7.0272 6.3909L7 6.50002H13ZM15.0576 2.5V6.5H21.0576C20.7243 5.16667 19.7576 2.5 18.5576 2.5H15.0576Z" fill="white"/>
</svg>
