<svg width="22" height="23" viewBox="0 0 22 23" fill="none" xmlns="http://www.w3.org/2000/svg">
<path fill-rule="evenodd" clip-rule="evenodd" d="M10.8749 0C8.37492 0 0.598586 5.05278 0.374983 5.5C-0.125005 6.5 -0.124984 15 0.374983 16.5C0.728516 17.5607 8.875 23 10.375 23C12.375 23 21.3749 18 21.3749 16.5C21.3749 16.1311 21.4354 15.3387 21.5118 14.3386C21.7458 11.2725 22.129 6.25405 21.3749 5.5C20.9664 5.09146 19.5564 4.09876 17.861 3.0674C14.4444 4.7683 8.51469 7.7427 8.17766 8.69123C8 9.19123 8 12 8 14L5.67766 11L4 12C4 10.3333 4 8 4.17762 6.5C4.27254 5.69833 10.4325 2.54229 13.9603 0.954513C12.7221 0.38487 11.6061 0 10.8749 0Z" fill="white"/>
</svg>
