<svg width="27" height="23" viewBox="0 0 27 23" fill="none" xmlns="http://www.w3.org/2000/svg">
<path d="M0 3.5V10.5C0 12.5 1.5 14.5 4 16L4.5 21C4.5 21.5 4.8 22.5 6 22.5C7.2 22.5 7.5 21.5 7.5 21C7.66667 20.1667 8 18 8 16C11 15 11.5 13 12 10.5C12.4 8.5 12 4 11.5 2C11.3917 1.56689 10.8 1 10 1C9.20001 1 9 2 9 2.5C9 3 9.5 6 9.5 7C9.5 8 9.5 8.5 8.5 8.5C7.3 8.5 7.50001 7.5 7.5 7V2C7.5 1.33333 7.2 0 6 0C4.8 0 4.5 1.33333 4.5 2V7C4.50001 7.5 4.7 8.5 3.5 8.5C2.3 8.5 2.5 7.5 2.5 7C2.5 6.5 3 4.5 3 3.5C3 2.5 2.7 1 1.5 1C0.3 1 0 2.66667 0 3.5Z" fill="white"/>
<path d="M20.5 0C17.3 0 15.5 5.33333 15 8C14.5 11 15 12 15.5 13C15.9 13.8 17.6666 15.3333 18.5 16L19 21C19 21.5 19.3 22.5 20.5 22.5C21.7 22.5 22 21.5 22 21L22.5 16L25.5 13C26.7 11.8 26.3333 9.16667 26 8C25.5 5.33333 23.7 0 20.5 0Z" fill="white"/>
</svg>
