<svg width="28" height="25" viewBox="0 0 28 25" fill="none" xmlns="http://www.w3.org/2000/svg">
<path d="M14.3393 3.49993C14.3393 4.69993 16.3393 4.66659 17.3393 4.49993C17.4018 4.66662 17.6894 5.7 18.3394 8.5C19.8394 17 16.8393 17.5 14.8394 18C12.8394 18.5 11.3394 14 12.8394 14C14.0394 14 15.006 13 15.3394 12.5C15.8394 10 15.8394 8.5 8.83936 8.5C0.839345 8.5 1.3394 10 0.339396 10.5C-0.460604 10.9 0.339362 12 0.839345 12.5C0.506012 13.1667 -0.660645 15 0.839345 15.5C3.83935 14.5 5.83935 14.5 8.33935 16C10.3393 17.2 10.506 20.5 10.3393 22H17.8393C17.6727 21.3333 17.5589 19.0075 19.3394 17C21.8392 14.1813 23.5 15 26 15C26.5 9.5 21.8393 6 20.3393 5C21.9393 5 21.3393 3.33333 20.8393 2.49999C20.1727 1.66666 18.5393 0.0999947 17.3393 0.499995C16.1393 0.899995 16.506 2.33328 16.8393 2.99993C16.006 2.66659 14.3393 2.29993 14.3393 3.49993Z" fill="white"/>
<circle cx="23.8394" cy="21" r="4" fill="white"/>
<circle cx="4.83936" cy="21" r="4" fill="white"/>
</svg>
