<svg width="18" height="25" viewBox="0 0 18 25" fill="none" xmlns="http://www.w3.org/2000/svg">
<path fill-rule="evenodd" clip-rule="evenodd" d="M0 4C0 1.79086 1.79086 0 4 0H14C16.2091 0 18 1.79086 18 4V21C18 23.2091 16.2091 25 14 25H4C1.79086 25 0 23.2091 0 21V4ZM3 5C3 3.89543 3.89543 3 5 3H13C14.1046 3 15 3.89543 15 5V15C15 16.1046 14.1046 17 13 17H5C3.89543 17 3 16.1046 3 15V5ZM9 23C10.1046 23 11 22.1046 11 21C11 19.8954 10.1046 19 9 19C7.89543 19 7 19.8954 7 21C7 22.1046 7.89543 23 9 23Z" fill="white"/>
<path d="M6 10.5L9 5V8.5H11.5L9 14V10.5H6Z" fill="white"/>
</svg>
