<svg width="23" height="22" viewBox="0 0 23 22" fill="none" xmlns="http://www.w3.org/2000/svg">
<path fill-rule="evenodd" clip-rule="evenodd" d="M0.231239 0.588457C-0.568761 1.78846 0.897906 2.75512 1.73124 3.08846C2.70222 3.65046 2.98377 6.42075 3.45698 11.077L3.5 11.5C3.81273 14.5719 6 15.8333 7 16C7.39937 16.02 7.86283 16.0465 8.37204 16.0756L8.37281 16.0756C12.1138 16.2896 18.323 16.6447 19.7312 15.5885C21.3927 14.3424 22.019 10.6809 22.47 8.0438L22.4701 8.04358C22.562 7.50633 22.6466 7.01161 22.7312 6.5885C23.1312 4.5885 21.8979 4.0885 21.2312 4.0885C16.2312 3.92182 5.9312 3.58846 4.7312 3.58846C4.7312 0.588457 1.23124 -0.911543 0.231239 0.588457ZM10.2312 6.00001C10.7835 6.00001 11.2312 6.44773 11.2312 7.00001V12C11.2312 12.5523 10.7835 13 10.2312 13C9.67892 13 9.2312 12.5523 9.2312 12V7.00001C9.2312 6.44773 9.67892 6.00001 10.2312 6.00001ZM15.7312 7.00001C15.7312 6.44773 15.2835 6.00001 14.7312 6.00001C14.1789 6.00001 13.7312 6.44773 13.7312 7.00001V12C13.7312 12.5523 14.1789 13 14.7312 13C15.2835 13 15.7312 12.5523 15.7312 12V7.00001Z" fill="white"/>
<circle cx="16.7312" cy="20" r="2" fill="white"/>
<circle cx="8.7312" cy="20" r="2" fill="white"/>
</svg>
