<svg width="18" height="17" viewBox="0 0 18 17" fill="none" xmlns="http://www.w3.org/2000/svg">
<path d="M17.553 15.3289L14.2559 12.4842C15.3492 10.9082 15.7971 8.97318 15.5075 7.07705C15.2179 5.18091 14.2128 3.4678 12.6989 2.28995C11.185 1.11211 9.27737 0.559062 7.36823 0.744533C5.4591 0.930003 3.69358 1.83989 2.43471 3.28711C1.17584 4.73432 0.519302 6.60886 0.600092 8.52528C0.680881 10.4417 1.49286 12.2543 2.86907 13.5905C4.24527 14.9266 6.08111 15.6847 7.99908 15.7088C9.91705 15.7329 11.7714 15.0213 13.1808 13.7202L16.453 16.5666C16.5357 16.6391 16.6319 16.6945 16.7361 16.7297C16.8404 16.7648 16.9506 16.779 17.0603 16.7714C17.17 16.7637 17.2772 16.7344 17.3756 16.6852C17.4739 16.6359 17.5616 16.5677 17.6334 16.4844C17.7725 16.3189 17.8418 16.106 17.8268 15.8904C17.8118 15.6748 17.7136 15.4734 17.553 15.3289ZM8.51704 14.0448C7.3661 14.1249 6.21725 13.8619 5.21578 13.2891C4.2143 12.7163 3.40518 11.8594 2.89072 10.8267C2.37627 9.794 2.17959 8.63197 2.32556 7.48751C2.47153 6.34306 2.95359 5.26759 3.71079 4.39711C4.46798 3.52663 5.4663 2.90023 6.5795 2.59713C7.69269 2.29402 8.87077 2.32783 9.96476 2.69427C11.0587 3.0607 12.0195 3.74332 12.7255 4.65578C13.4316 5.56825 13.8512 6.66959 13.9313 7.82053C14.0387 9.36389 13.5286 10.8867 12.5132 12.054C11.4979 13.2213 10.0604 13.9374 8.51704 14.0448Z" fill="#1C1C1C"/>
</svg>
