<svg width="41" height="40" viewBox="0 0 41 40" fill="none" xmlns="http://www.w3.org/2000/svg">
<path fill-rule="evenodd" clip-rule="evenodd" d="M20.2312 0C17.7065 0 16.2337 1.68314 15.813 2.52471C12.4467 10.5196 5.58789 28.0243 5.08295 34.0836C4.57801 40.1428 9.92198 40.3953 12.6571 39.7641L20.2312 35.9771L27.8053 39.7641C30.5404 40.3953 35.8844 40.1428 35.3794 34.0836C34.8745 28.0243 28.0157 10.5196 24.6494 2.52471C24.2287 1.68314 22.7559 0 20.2312 0Z" fill="#0AAFD9"/>
<path d="M34.3515 22.3243L31.3183 13.7302C31.1134 13.1497 31.4767 12.5244 32.0907 12.4785C34.626 12.289 38.4699 12.7594 39.7641 15.7794C41.0846 18.8603 38.0249 21.5257 35.6851 22.8558C35.1751 23.1457 34.5468 22.8776 34.3515 22.3243Z" fill="#0AAFD9"/>
<path d="M5.73148 22.3243L8.76469 13.7302C8.96958 13.1497 8.60622 12.5244 7.99231 12.4785C5.45697 12.289 1.61311 12.7594 0.318828 15.7794C-1.00159 18.8603 2.05804 21.5257 4.39785 22.8558C4.90791 23.1457 5.53621 22.8776 5.73148 22.3243Z" fill="#0AAFD9"/>
<path d="M15.5427 22.28C14.7427 22.28 14.2093 22.9467 14.0427 23.28C13.5427 28.28 17.5427 30.78 20.5427 30.78C23.5427 30.78 25.6591 27.314 26.0426 25.78C26.5426 23.78 26.5426 23.28 25.5426 22.28C24.5426 21.28 21.5427 23.28 20.0427 23.28C18.5427 23.28 16.5427 22.28 15.5427 22.28Z" fill="#00263E"/>
<mask id="mask0_1_166" style="mask-type:alpha" maskUnits="userSpaceOnUse" x="14" y="22" width="13" height="9">
<path d="M15.5427 22.28C14.7427 22.28 14.2093 22.9467 14.0427 23.28C13.5427 28.28 17.5427 30.78 20.5427 30.78C23.5427 30.78 25.6591 27.314 26.0426 25.78C26.5426 23.78 26.5426 23.28 25.5426 22.28C24.5426 21.28 21.5427 23.28 20.0427 23.28C18.5427 23.28 16.5427 22.28 15.5427 22.28Z" fill="#BDE1EC"/>
</mask>
<g mask="url(#mask0_1_166)">
<path d="M15.5427 17.56C14.7427 17.56 14.2093 18.2267 14.0427 18.56C13.5427 23.56 17.5427 26.0601 20.5427 26.0601C23.5427 26.0601 25.6591 22.594 26.0426 21.0601C26.5426 19.0601 26.5426 18.56 25.5426 17.56C24.5426 16.56 21.5427 18.56 20.0427 18.56C18.5427 18.56 16.5427 17.56 15.5427 17.56Z" fill="#BDE1EC"/>
</g>
<path d="M19 28.28C17.8 27.48 15.8333 27.6133 15 27.78L15 27.78C15.3333 28.28 15.8 28.98 17 29.78C18.2 30.58 20.1667 31.1134 21 30.78C20.6667 30.4467 20.2 29.08 19 28.28Z" fill="#405C70"/>
<path d="M14 11C14.4 10.4043 15.56 9.45125 17 10.4043" stroke="#00263E" stroke-linecap="round"/>
<path d="M26 11C25.6 10.4043 24.44 9.45125 23 10.4043" stroke="#00263E" stroke-linecap="round"/>
<path d="M19 16C19 18.2091 16.3137 20 13 20C9.68629 20 7 17.2091 7 15C7 12.7909 9.68629 12 13 12C16.3137 12 19 12.7931 19 16Z" fill="#00263E"/>
<path d="M12.5 12.5C7.68336 12.5 7 13.5 7 14.5C7 16 9.95862 20 13 20C16.5 20 19 18 19 15.5C19 13 18.5 12.5 12.5 12.5Z" stroke="#45D3E7" stroke-linecap="round"/>
<ellipse cx="10.5" cy="15" rx="1.5" ry="1" fill="#405C70"/>
<path d="M21 16C21 18.2091 23.6863 20 27 20C30.3137 20 33 17.2091 33 15C33 12.7909 30.3137 12 27 12C23.6863 12 21 12.7931 21 16Z" fill="#00263E"/>
<path d="M27.5 12.5C32.3166 12.5 33 13.5 33 14.5C33 16 30.0414 20 27 20C23.5 20 21 18 21 15.5C21 13 21.5 12.5 27.5 12.5Z" stroke="#45D3E7" stroke-linecap="round"/>
<ellipse cx="1.5" cy="1" rx="1.5" ry="1" transform="matrix(-1 0 0 1 31 14)" fill="#405C70"/>
<path d="M22.5 2.5C22.8333 2.83333 23.5 3.7 23.5 4.5" stroke="white" stroke-opacity="0.5" stroke-linecap="round"/>
<path d="M38 15C38.3333 15.3333 39 16.2 39 17" stroke="white" stroke-opacity="0.5" stroke-linecap="round"/>
</svg>
